<svg width="300" height="300" viewBox="0 0 300 300" fill="none" xmlns="http://www.w3.org/2000/svg">
<mask id="path-1-inside-1" fill="white">
<rect width="300" height="300" rx="4"/>
</mask>
<rect width="300" height="300" rx="4" stroke="#64FFDA" stroke-width="30" mask="url(#path-1-inside-1)"/>
<path d="M184.976 171.28C184.976 177.04 183.512 182.152 180.584 186.616C177.704 191.032 173.504 194.512 167.984 197.056C162.512 199.552 155.864 200.8 148.04 200.8C140.456 200.8 133.688 199.648 127.736 197.344C121.784 195.04 116.72 191.872 112.544 187.84L120.68 178.696C124.136 181.912 128.096 184.456 132.56 186.328C137.024 188.2 142.232 189.136 148.184 189.136C152.072 189.136 155.672 188.512 158.984 187.264C162.344 185.968 165.032 184.048 167.048 181.504C169.112 178.912 170.144 175.672 170.144 171.784C170.144 168.712 169.52 166.096 168.272 163.936C167.072 161.728 164.936 159.784 161.864 158.104C158.792 156.424 154.496 154.768 148.976 153.136C138.896 150.16 131.048 146.536 125.432 142.264C119.816 137.992 117.008 131.92 117.008 124.048C117.008 118.912 118.424 114.4 121.256 110.512C124.088 106.576 127.976 103.504 132.92 101.296C137.864 99.088 143.552 97.984 149.984 97.984C156.944 97.984 163.016 98.992 168.2 101.008C173.432 103.024 178.136 105.88 182.312 109.576L174.392 118.504C170.84 115.384 167.024 113.128 162.944 111.736C158.912 110.296 154.808 109.576 150.632 109.576C145.352 109.576 140.864 110.728 137.168 113.032C133.472 115.288 131.624 118.744 131.624 123.4C131.624 126.184 132.368 128.56 133.856 130.528C135.344 132.448 137.84 134.224 141.344 135.856C144.896 137.488 149.744 139.216 155.888 141.04C161.216 142.624 166.064 144.568 170.432 146.872C174.848 149.128 178.376 152.2 181.016 156.088C183.656 159.928 184.976 164.992 184.976 171.28Z" fill="#64FFDA"/>
</svg>
